<svg width="22" height="17" viewBox="0 0 22 17" fill="none" xmlns="http://www.w3.org/2000/svg">
<path id="&#239;&#148;&#161;" d="M22 3.94643C22 4.8192 21.3137 5.46429 20.4749 5.46429C20.4367 5.46429 20.4367 5.46429 20.4367 5.46429L18.4922 16.0134C18.4159 16.5826 17.8821 17 17.3102 17H4.68977C4.11785 17 3.58406 16.5826 3.5078 16.0134L1.56326 5.46429C1.56326 5.46429 1.56326 5.46429 1.52513 5.46429C0.686308 5.46429 0 4.8192 0 3.94643C0 3.11161 0.686308 2.42857 1.52513 2.42857C2.32582 2.42857 3.05026 3.11161 3.05026 3.94643C3.05026 4.28795 2.89775 4.59152 2.70711 4.85714L6.13865 7.58929C6.7487 8.04464 7.62565 7.85491 7.9688 7.17188L10.1802 2.80804C9.76083 2.54241 9.45581 2.08705 9.45581 1.51786C9.45581 0.683036 10.1421 0 11.0191 0C11.8579 0 12.5061 0.683036 12.5061 1.51786C12.5061 2.08705 12.201 2.54241 11.7435 2.80804L13.9549 7.17188C14.2981 7.85491 15.2132 8.04464 15.8232 7.58929L19.2166 4.85714C19.0641 4.59152 18.9497 4.28795 18.9497 3.94643C18.9497 3.11161 19.5979 2.42857 20.4749 2.42857C21.3137 2.42857 22 3.11161 22 3.94643Z" fill="#F05323"/>
</svg>
