<svg width="86" height="23" viewBox="0 0 86 23" fill="none" xmlns="http://www.w3.org/2000/svg">
<path d="M37.6094 0H40.4532V19.6428H49.8662V22.028H37.6094V0Z" fill="white"/>
<path d="M60.3575 22.028H57.5137V2.38524H48.1017V0H60.3575V22.028Z" fill="white"/>
<g clip-path="url(#clip0_1_96)">
<rect width="12.4969" height="12.4969" transform="translate(42.9062 4.82031)" fill="white"/>
<path d="M53.1591 13.1024C53.2616 13.2024 53.3416 13.3232 53.394 13.4567C53.4463 13.5902 53.4698 13.7333 53.4627 13.8766C53.4646 14.0062 53.4405 14.1348 53.3918 14.2548C53.3432 14.3748 53.2709 14.4838 53.1794 14.5753C53.0925 14.6689 52.987 14.7431 52.8696 14.7931C52.7522 14.8431 52.6256 14.8677 52.4981 14.8654H51.5323V13.8766C51.5258 13.7337 51.5494 13.5911 51.6018 13.4581C51.6541 13.3251 51.7339 13.2047 51.8359 13.1048C52.0174 12.9405 52.2531 12.8496 52.4975 12.8496C52.7419 12.8496 52.9777 12.9405 53.1591 13.1048V13.1024Z" fill="#F05323"/>
<path d="M54.9424 11.5312H50.0942C49.9718 11.5312 49.8545 11.58 49.7679 11.6668C49.6814 11.7535 49.6328 11.8712 49.6328 11.9939V16.8539C49.6328 16.9766 49.6814 17.0942 49.7679 17.181C49.8545 17.2677 49.9718 17.3165 50.0942 17.3165H54.9424C55.0647 17.3165 55.1821 17.2677 55.2686 17.181C55.3551 17.0942 55.4037 16.9766 55.4037 16.8539V11.9939C55.4037 11.8712 55.3551 11.7535 55.2686 11.6668C55.1821 11.58 55.0647 11.5312 54.9424 11.5312ZM53.7471 15.1268C53.5842 15.2906 53.3901 15.4197 53.1762 15.5064C52.9624 15.5931 52.7333 15.6356 52.5027 15.6314H51.5322V16.7016H50.7361V13.8767C50.7325 13.6398 50.7763 13.4045 50.865 13.1849C50.9537 12.9652 51.0854 12.7656 51.2525 12.5979C51.4143 12.4311 51.6079 12.2985 51.8217 12.208C52.0355 12.1174 52.2653 12.0708 52.4974 12.0708C52.7295 12.0708 52.9592 12.1174 53.173 12.208C53.3869 12.2985 53.5804 12.4311 53.7423 12.5979C53.9099 12.7654 54.0422 12.9648 54.1316 13.1845C54.2209 13.4041 54.2653 13.6395 54.2622 13.8767C54.2662 14.1098 54.2221 14.3412 54.1326 14.5563C54.0431 14.7714 53.9102 14.9657 53.7423 15.1268H53.7471Z" fill="#F05323"/>
<path d="M48.2146 4.82031H43.3676C43.2453 4.82031 43.1279 4.86905 43.0414 4.95581C42.9549 5.04257 42.9063 5.16024 42.9063 5.28294V10.1429C42.9061 10.2037 42.9179 10.2639 42.9411 10.3201C42.9642 10.3763 42.9982 10.4274 43.041 10.4704C43.0839 10.5134 43.1348 10.5475 43.1909 10.5707C43.2469 10.5938 43.307 10.6057 43.3676 10.6055H48.2146C48.337 10.6055 48.4543 10.5568 48.5409 10.47C48.6274 10.3833 48.676 10.2656 48.676 10.1429V5.28294C48.676 5.16024 48.6274 5.04257 48.5409 4.95581C48.4543 4.86905 48.337 4.82031 48.2146 4.82031ZM47.3958 6.18422H46.191V9.99191H45.3674V6.18422H44.1613V5.35964H47.3958V6.18422Z" fill="#F05323"/>
<path d="M53.3758 7.08228V7.76303H51.547V7.08228C51.5449 6.96252 51.5677 6.84363 51.614 6.73321C51.6603 6.6228 51.7291 6.5233 51.816 6.44107C51.9881 6.26988 52.2208 6.17383 52.4632 6.17383C52.7057 6.17383 52.9383 6.26988 53.1105 6.44107C53.1966 6.52366 53.2647 6.62331 53.3104 6.7337C53.3561 6.84408 53.3784 6.96279 53.3758 7.08228Z" fill="#F05323"/>
<path d="M54.9424 4.82031H50.0942C49.9718 4.82031 49.8545 4.86905 49.7679 4.95581C49.6814 5.04257 49.6328 5.16024 49.6328 5.28294V10.1429C49.6328 10.2656 49.6814 10.3833 49.7679 10.47C49.8545 10.5568 49.9718 10.6055 50.0942 10.6055H54.9424C55.0647 10.6055 55.1821 10.5568 55.2686 10.47C55.3551 10.3833 55.4037 10.2656 55.4037 10.1429V5.28294C55.4037 5.16024 55.3551 5.04257 55.2686 4.95581C55.1821 4.86905 55.0647 4.82031 54.9424 4.82031ZM54.2025 9.99191H53.3813V8.52492H51.5525V9.99191H50.7361V7.08311C50.7328 6.85597 50.7761 6.63058 50.8633 6.42091C50.9505 6.21124 51.0797 6.02176 51.2429 5.86422C51.5693 5.54079 52.0098 5.35941 52.4687 5.35941C52.9276 5.35941 53.368 5.54079 53.6945 5.86422C53.8578 6.0217 53.9872 6.21115 54.0746 6.42081C54.162 6.63047 54.2055 6.85589 54.2025 7.08311V9.99191Z" fill="#F05323"/>
<path d="M46.9742 13.209H44.7031V15.4862H46.9742V13.209Z" fill="#F05323"/>
<path fill-rule="evenodd" clip-rule="evenodd" d="M43.829 12.4565V16.3912H47.7532V12.4565H43.829ZM43.3676 11.5313C43.2453 11.5313 43.1279 11.58 43.0414 11.6668C42.9549 11.7535 42.9062 11.8712 42.9062 11.9939V16.8539C42.9062 16.9766 42.9549 17.0942 43.0414 17.181C43.1279 17.2677 43.2453 17.3165 43.3676 17.3165H48.2146C48.2753 17.3166 48.3354 17.3048 48.3915 17.2816C48.4477 17.2584 48.4987 17.2244 48.5416 17.1814C48.5846 17.1384 48.6187 17.0874 48.642 17.0312C48.6652 16.975 48.6772 16.9147 48.6772 16.8539V11.9939C48.6772 11.933 48.6652 11.8728 48.642 11.8166C48.6187 11.7604 48.5846 11.7093 48.5416 11.6663C48.4987 11.6234 48.4477 11.5893 48.3915 11.5661C48.3354 11.5429 48.2753 11.5311 48.2146 11.5313H43.3676Z" fill="#F05323"/>
</g>
<path d="M13.1287 12.5284H3.48536V21.9916H0V0H3.48241V9.41303H13.1257V0H16.5914V21.9916H13.1287V12.5284Z" fill="white"/>
<path d="M20.9922 0H34.3235V3.1321H24.4776V9.44649H34.1573V12.4969H24.4776V18.8605H34.3235V21.9936H20.9922V0Z" fill="white"/>
<path d="M64.3286 10.9954C64.3161 9.5154 64.5922 8.04711 65.1414 6.67269C65.661 5.37169 66.4264 4.18299 67.3957 3.17158C68.3566 2.17296 69.5093 1.37873 70.7847 0.836526C73.4952 -0.278842 76.5366 -0.278842 79.2472 0.836526C80.5209 1.38169 81.673 2.17554 82.6361 3.17158C83.6071 4.17839 84.3678 5.3686 84.8737 6.67269C85.4065 8.05102 85.6736 9.51776 85.6609 10.9954C85.6742 12.4781 85.4092 13.95 84.8796 15.3349C84.3796 16.6388 83.6273 17.8313 82.6656 18.8439C81.7109 19.8477 80.5605 20.6451 79.2855 21.1868C77.931 21.7558 76.4742 22.0408 75.0051 22.0242C73.4372 22.0242 72.0016 21.7451 70.6981 21.1868C69.4214 20.6476 68.2702 19.8499 67.317 18.8439C66.3601 17.8293 65.6109 16.6372 65.1119 15.3349C64.5811 13.9503 64.3154 12.4782 64.3286 10.9954ZM67.8543 10.9954C67.8543 12.4557 68.1603 13.7785 68.7724 14.9639C69.3493 16.1115 70.222 17.0843 71.3003 17.7822C72.3729 18.4736 73.6078 18.8196 75.0051 18.8203C76.4214 18.8203 77.6636 18.4742 78.7315 17.7822C79.8049 17.0834 80.6719 16.1104 81.2427 14.9639C81.8495 13.7785 82.1529 12.4557 82.1529 10.9954C82.1529 9.53517 81.8495 8.21528 81.2427 7.03579C80.6715 5.89403 79.8043 4.92655 78.7315 4.23431C77.6629 3.54747 76.4208 3.20405 75.0051 3.20405C73.6085 3.20405 72.3742 3.54747 71.3023 4.23431C70.2247 4.92573 69.3518 5.89304 68.7743 7.03579C68.161 8.21594 67.8543 9.53582 67.8543 10.9954Z" fill="white"/>
<defs>
<clipPath id="clip0_1_96">
<rect width="12.4969" height="12.4969" fill="white" transform="translate(42.9062 4.82031)"/>
</clipPath>
</defs>
</svg>
