<svg width="215" height="42" viewBox="0 0 215 42" fill="none" xmlns="http://www.w3.org/2000/svg">
<rect width="215" height="42" rx="21" fill="#F05323"/>
<path d="M24.2298 19.0994C24.1114 18.7159 23.948 18.3726 23.7397 18.0696C23.5361 17.7618 23.2899 17.4991 23.0011 17.2812C22.717 17.0634 22.3903 16.9001 22.021 16.7912C21.6516 16.6776 21.2492 16.6207 20.8136 16.6207C20.0323 16.6207 19.3363 16.8172 18.7255 17.2102C18.1147 17.6032 17.6341 18.1809 17.2837 18.9432C16.9381 19.7008 16.7653 20.6241 16.7653 21.7131C16.7653 22.8116 16.9381 23.742 17.2837 24.5043C17.6294 25.2666 18.11 25.8466 18.7255 26.2443C19.341 26.6373 20.056 26.8338 20.8704 26.8338C21.609 26.8338 22.2482 26.6918 22.788 26.4077C23.3325 26.1236 23.7515 25.7211 24.0451 25.2003C24.3387 24.6747 24.4854 24.0592 24.4854 23.3537L25.082 23.446H21.1332V21.3864H27.0352V23.1335C27.0352 24.3788 26.77 25.456 26.2397 26.3651C25.7094 27.2741 24.9802 27.9749 24.0522 28.4673C23.1242 28.955 22.0588 29.1989 20.8562 29.1989C19.5162 29.1989 18.3396 28.8982 17.3263 28.2969C16.3178 27.6908 15.5295 26.8314 14.9613 25.7188C14.3978 24.6013 14.1161 23.2756 14.1161 21.7415C14.1161 20.5672 14.2818 19.5185 14.6133 18.5952C14.9495 17.6719 15.4182 16.8883 16.0195 16.2443C16.6209 15.5956 17.3263 15.1032 18.136 14.767C18.9457 14.4261 19.8263 14.2557 20.7781 14.2557C21.583 14.2557 22.3335 14.3741 23.0295 14.6108C23.7255 14.8428 24.3434 15.1742 24.8832 15.6051C25.4277 16.036 25.8751 16.5473 26.2255 17.1392C26.5759 17.7311 26.8055 18.3845 26.9144 19.0994H24.2298ZM34.299 29.2131C33.2053 29.2131 32.2607 28.9858 31.4652 28.5312C30.6745 28.072 30.0661 27.4233 29.6399 26.5852C29.2138 25.7424 29.0007 24.7505 29.0007 23.6094C29.0007 22.4872 29.2138 21.5024 29.6399 20.6548C30.0708 19.8026 30.6721 19.1397 31.4439 18.6662C32.2157 18.188 33.1224 17.9489 34.1641 17.9489C34.8364 17.9489 35.4709 18.0578 36.0675 18.2756C36.6688 18.4886 37.1991 18.8201 37.6584 19.2699C38.1224 19.7197 38.487 20.2926 38.7521 20.9886C39.0173 21.6799 39.1499 22.5038 39.1499 23.4602V24.2486H30.2081V22.5156H36.6854C36.6806 22.0232 36.5741 21.5852 36.3658 21.2017C36.1574 20.8134 35.8662 20.508 35.4922 20.2855C35.1229 20.063 34.692 19.9517 34.1996 19.9517C33.674 19.9517 33.2124 20.0795 32.8146 20.3352C32.4169 20.5862 32.1068 20.9176 31.8842 21.3295C31.6664 21.7367 31.5552 22.1842 31.5504 22.6719V24.1847C31.5504 24.8191 31.6664 25.3636 31.8984 25.8182C32.1304 26.268 32.4548 26.6136 32.8714 26.8551C33.2881 27.0919 33.7758 27.2102 34.3345 27.2102C34.7086 27.2102 35.0471 27.1581 35.3501 27.054C35.6532 26.9451 35.916 26.7865 36.1385 26.5781C36.361 26.3698 36.5291 26.1117 36.6428 25.804L39.0433 26.0739C38.8918 26.7083 38.603 27.2623 38.1768 27.7358C37.7554 28.2045 37.2157 28.5691 36.5575 28.8295C35.8994 29.0852 35.1465 29.2131 34.299 29.2131ZM46.7724 18.0909V20.0795H40.5011V18.0909H46.7724ZM42.0494 15.4773H44.6204V25.7188C44.6204 26.0644 44.6725 26.3295 44.7766 26.5142C44.8855 26.6941 45.0276 26.8172 45.2028 26.8835C45.378 26.9498 45.5721 26.983 45.7852 26.983C45.9461 26.983 46.0929 26.9711 46.2255 26.9474C46.3628 26.9238 46.467 26.9025 46.538 26.8835L46.9712 28.8935C46.8339 28.9408 46.6374 28.9929 46.3817 29.0497C46.1308 29.1065 45.823 29.1397 45.4585 29.1491C44.8145 29.1681 44.2345 29.071 43.7184 28.858C43.2023 28.6402 42.7927 28.304 42.4897 27.8494C42.1914 27.3949 42.0446 26.8267 42.0494 26.1449V15.4773ZM59.331 18.0909V20.0795H53.0597V18.0909H59.331ZM54.608 15.4773H57.179V25.7188C57.179 26.0644 57.2311 26.3295 57.3352 26.5142C57.4441 26.6941 57.5862 26.8172 57.7614 26.8835C57.9366 26.9498 58.1307 26.983 58.3438 26.983C58.5047 26.983 58.6515 26.9711 58.7841 26.9474C58.9214 26.9238 59.0256 26.9025 59.0966 26.8835L59.5298 28.8935C59.3925 28.9408 59.196 28.9929 58.9403 29.0497C58.6894 29.1065 58.3816 29.1397 58.017 29.1491C57.3731 29.1681 56.7931 29.071 56.277 28.858C55.7609 28.6402 55.3513 28.304 55.0483 27.8494C54.75 27.3949 54.6032 26.8267 54.608 26.1449V15.4773ZM64.2866 22.608V29H61.7156V14.4545H64.2298V19.9446H64.3576C64.6133 19.3291 65.0086 18.8437 65.5437 18.4886C66.0835 18.1288 66.77 17.9489 67.6033 17.9489C68.3609 17.9489 69.0214 18.1075 69.5849 18.4247C70.1483 18.742 70.5839 19.206 70.8917 19.8168C71.2042 20.4276 71.3604 21.1733 71.3604 22.054V29H68.7894V22.4517C68.7894 21.7178 68.6 21.1473 68.2212 20.7401C67.8472 20.3281 67.3216 20.1222 66.6445 20.1222C66.19 20.1222 65.7828 20.2216 65.4229 20.4205C65.0678 20.6146 64.7885 20.8963 64.5849 21.2656C64.386 21.6349 64.2866 22.0824 64.2866 22.608ZM78.8107 29.2131C77.717 29.2131 76.7724 28.9858 75.9769 28.5312C75.1862 28.072 74.5778 27.4233 74.1516 26.5852C73.7255 25.7424 73.5124 24.7505 73.5124 23.6094C73.5124 22.4872 73.7255 21.5024 74.1516 20.6548C74.5825 19.8026 75.1838 19.1397 75.9556 18.6662C76.7274 18.188 77.6341 17.9489 78.6758 17.9489C79.3481 17.9489 79.9826 18.0578 80.5792 18.2756C81.1805 18.4886 81.7108 18.8201 82.1701 19.2699C82.6341 19.7197 82.9987 20.2926 83.2638 20.9886C83.529 21.6799 83.6616 22.5038 83.6616 23.4602V24.2486H74.7198V22.5156H81.1971C81.1924 22.0232 81.0858 21.5852 80.8775 21.2017C80.6692 20.8134 80.378 20.508 80.0039 20.2855C79.6346 20.063 79.2037 19.9517 78.7113 19.9517C78.1857 19.9517 77.7241 20.0795 77.3263 20.3352C76.9286 20.5862 76.6185 20.9176 76.396 21.3295C76.1781 21.7367 76.0669 22.1842 76.0621 22.6719V24.1847C76.0621 24.8191 76.1781 25.3636 76.4102 25.8182C76.6422 26.268 76.9665 26.6136 77.3832 26.8551C77.7998 27.0919 78.2875 27.2102 78.8462 27.2102C79.2203 27.2102 79.5588 27.1581 79.8619 27.054C80.1649 26.9451 80.4277 26.7865 80.6502 26.5781C80.8728 26.3698 81.0408 26.1117 81.1545 25.804L83.555 26.0739C83.4035 26.7083 83.1147 27.2623 82.6886 27.7358C82.2672 28.2045 81.7274 28.5691 81.0692 28.8295C80.4111 29.0852 79.6583 29.2131 78.8107 29.2131ZM92.7791 29H89.9666L95.0874 14.4545H98.3402L103.468 29H100.656L96.7706 17.4375H96.657L92.7791 29ZM92.8714 23.2969H100.542V25.4134H92.8714V23.2969ZM105.27 33.0909V18.0909H107.799V19.8949H107.948C108.08 19.6297 108.267 19.348 108.509 19.0497C108.75 18.7467 109.077 18.4886 109.489 18.2756C109.901 18.0578 110.426 17.9489 111.066 17.9489C111.908 17.9489 112.668 18.1643 113.346 18.5952C114.027 19.0213 114.567 19.6534 114.965 20.4915C115.367 21.3248 115.569 22.3475 115.569 23.5597C115.569 24.7576 115.372 25.7756 114.979 26.6136C114.586 27.4517 114.051 28.0909 113.374 28.5312C112.697 28.9716 111.93 29.1918 111.073 29.1918C110.448 29.1918 109.929 29.0876 109.517 28.8793C109.105 28.6709 108.774 28.42 108.523 28.1264C108.277 27.8281 108.085 27.5464 107.948 27.2812H107.841V33.0909H105.27ZM107.792 23.5455C107.792 24.2509 107.891 24.8688 108.09 25.3991C108.293 25.9295 108.585 26.3437 108.963 26.642C109.347 26.9356 109.811 27.0824 110.355 27.0824C110.924 27.0824 111.4 26.9309 111.783 26.6278C112.167 26.3201 112.455 25.901 112.65 25.3707C112.848 24.8357 112.948 24.2273 112.948 23.5455C112.948 22.8684 112.851 22.267 112.657 21.7415C112.462 21.2159 112.174 20.804 111.79 20.5057C111.407 20.2074 110.928 20.0582 110.355 20.0582C109.806 20.0582 109.34 20.2027 108.956 20.4915C108.573 20.7803 108.282 21.1851 108.083 21.706C107.889 22.2268 107.792 22.84 107.792 23.5455ZM117.77 33.0909V18.0909H120.299V19.8949H120.448C120.58 19.6297 120.767 19.348 121.009 19.0497C121.25 18.7467 121.577 18.4886 121.989 18.2756C122.401 18.0578 122.926 17.9489 123.566 17.9489C124.408 17.9489 125.168 18.1643 125.846 18.5952C126.527 19.0213 127.067 19.6534 127.465 20.4915C127.867 21.3248 128.069 22.3475 128.069 23.5597C128.069 24.7576 127.872 25.7756 127.479 26.6136C127.086 27.4517 126.551 28.0909 125.874 28.5312C125.197 28.9716 124.43 29.1918 123.573 29.1918C122.948 29.1918 122.429 29.0876 122.017 28.8793C121.605 28.6709 121.274 28.42 121.023 28.1264C120.777 27.8281 120.585 27.5464 120.448 27.2812H120.341V33.0909H117.77ZM120.292 23.5455C120.292 24.2509 120.391 24.8688 120.59 25.3991C120.793 25.9295 121.085 26.3437 121.463 26.642C121.847 26.9356 122.311 27.0824 122.855 27.0824C123.424 27.0824 123.9 26.9309 124.283 26.6278C124.667 26.3201 124.955 25.901 125.15 25.3707C125.348 24.8357 125.448 24.2273 125.448 23.5455C125.448 22.8684 125.351 22.267 125.157 21.7415C124.962 21.2159 124.674 20.804 124.29 20.5057C123.907 20.2074 123.428 20.0582 122.855 20.0582C122.306 20.0582 121.84 20.2027 121.456 20.4915C121.073 20.7803 120.782 21.1851 120.583 21.706C120.389 22.2268 120.292 22.84 120.292 23.5455Z" fill="white"/>
<circle cx="193" cy="21" r="17" fill="#FDE5DE"/>
<path d="M198.831 31.1173C197.603 32.2783 196.263 32.095 194.972 31.5451C193.607 30.9829 192.354 30.9585 190.913 31.5451C189.11 32.3027 188.158 32.0828 187.08 31.1173C180.967 24.9703 181.869 15.6093 188.809 15.2671C190.5 15.3527 191.678 16.1714 192.667 16.2448C194.145 15.9515 195.561 15.1082 197.139 15.2182C199.031 15.3649 200.459 16.0981 201.399 17.418C197.49 19.7032 198.417 24.7259 202 26.1313C201.286 27.9644 200.359 29.7853 198.818 31.1296L198.831 31.1173ZM192.542 15.1938C192.354 12.4686 194.622 10.22 197.227 10C197.59 13.1529 194.296 15.4993 192.542 15.1938Z" fill="#404046"/>
<circle cx="156" cy="21" r="17" fill="#FDE5DE"/>
<path d="M149.514 26.6402C149.514 27.2147 149.987 27.6837 150.568 27.6837H151.773V30.6398C151.773 31.3886 152.38 32 153.124 32C153.872 32 154.476 31.3911 154.476 30.6398V27.6812H156.579V30.6373C156.579 31.3862 157.185 31.9975 157.93 31.9975C158.677 31.9975 159.281 31.3886 159.281 30.6373V27.6812H160.486C161.068 27.6812 161.54 27.2123 161.54 26.6377V16.9346H149.514V26.6402ZM158.351 11.9063L159.462 10.3103C159.526 10.217 159.511 10.0918 159.425 10.0304C159.338 9.97152 159.214 10.001 159.15 10.0943L157.997 11.754C157.237 11.4569 156.391 11.2924 155.502 11.2924C154.614 11.2924 153.768 11.4569 153.008 11.754L151.855 10.0967C151.791 10.0034 151.667 9.97152 151.58 10.0329C151.494 10.0918 151.479 10.2146 151.543 10.3128L152.654 11.9087C150.887 12.7238 149.65 14.2682 149.492 16.0728H161.518C161.355 14.2657 160.115 12.7214 158.351 11.9063ZM152.964 14.4229C152.832 14.4229 152.703 14.3841 152.594 14.3116C152.484 14.239 152.399 14.1359 152.349 14.0152C152.298 13.8945 152.285 13.7617 152.311 13.6336C152.336 13.5055 152.4 13.3878 152.493 13.2954C152.586 13.203 152.705 13.1401 152.834 13.1146C152.963 13.0892 153.097 13.1022 153.218 13.1522C153.34 13.2022 153.444 13.2869 153.517 13.3955C153.59 13.5041 153.629 13.6318 153.629 13.7624C153.629 13.9374 153.558 14.1052 153.434 14.2289C153.309 14.3527 153.14 14.4224 152.964 14.4229ZM158.121 14.4229C157.989 14.4229 157.86 14.3841 157.751 14.3116C157.641 14.239 157.556 14.1359 157.506 14.0152C157.455 13.8945 157.442 13.7617 157.468 13.6336C157.493 13.5055 157.557 13.3878 157.65 13.2954C157.743 13.203 157.862 13.1401 157.991 13.1146C158.12 13.0892 158.254 13.1022 158.375 13.1522C158.497 13.2022 158.601 13.2869 158.674 13.3955C158.747 13.5041 158.786 13.6318 158.786 13.7624C158.786 13.9374 158.716 14.1052 158.591 14.2289C158.466 14.3527 158.297 14.4224 158.121 14.4229ZM163.649 16.8953C162.902 16.8953 162.298 17.5042 162.298 18.2555V23.5687C162.298 24.3175 162.904 24.9289 163.649 24.9289C164.396 24.9289 165 24.32 165 23.5687V18.2531C165.002 17.5018 164.399 16.8953 163.649 16.8953ZM147.351 16.8953C146.604 16.8953 146 17.5042 146 18.2555V23.5687C146 24.3175 146.606 24.9289 147.351 24.9289C148.098 24.9289 148.702 24.32 148.702 23.5687V18.2531C148.702 17.5018 148.096 16.8953 147.351 16.8953Z" fill="#404046"/>
</svg>
